<svg height="512" viewBox="0 0 74 74" width="512" xmlns="http://www.w3.org/2000/svg"><g id="color_line" data-name="color line"><path d="m13.085 3h47.83a8.025 8.025 0 0 1 8.025 8.025v59.975l-23.915-15.248-23.915 15.248v-48.579" fill="#fe7058"/><path d="m68.94 11.03v59.97l-4.01-2.56v-54.2a8.028 8.028 0 0 0 -8.03-8.02h-42.49l-1.33-3.22h47.84a8.021 8.021 0 0 1 8.02 8.03z" fill="#ea6453"/><path d="m13.085 3a8.025 8.025 0 0 0 -8.025 8.025v11.4h16.05v-11.4a8.025 8.025 0 0 0 -8.025-8.025z" fill="#fe7058"/><g fill="#323c6b"><path d="m21.11 22.921h-16.05a.5.5 0 0 1 -.5-.5v-11.4a8.525 8.525 0 1 1 17.051 0v11.4a.5.5 0 0 1 -.501.5zm-15.551-1h15.051v-10.9a7.525 7.525 0 1 0 -15.051 0z"/><path d="m35.023 66.188a.5.5 0 0 1 -.27-.921l6.915-4.409a.5.5 0 1 1 .538.843l-6.915 4.409a.5.5 0 0 1 -.268.078z"/><path d="m32.25 67.956a.5.5 0 0 1 -.27-.921l.516-.329a.5.5 0 1 1 .538.843l-.516.329a.5.5 0 0 1 -.268.078z"/><path d="m71.872 10.313a.5.5 0 0 1 -.5-.445 10.483 10.483 0 0 0 -3.66-6.861.5.5 0 0 1 .647-.762 11.478 11.478 0 0 1 4.006 7.514.5.5 0 0 1 -.442.552z"/><path d="m71.94 12.938a.5.5 0 0 1 -.5-.5v-.688a.5.5 0 0 1 1 0v.688a.5.5 0 0 1 -.5.5z"/><path d="m68.94 71.5a.5.5 0 0 1 -.269-.079l-23.646-15.076-23.646 15.076a.5.5 0 0 1 -.769-.421v-48.579a.5.5 0 0 1 1 0v47.667l23.146-14.757a.5.5 0 0 1 .538 0l23.146 14.757v-59.063a7.534 7.534 0 0 0 -7.525-7.525h-47.83a.5.5 0 0 1 0-1h47.83a8.535 8.535 0 0 1 8.525 8.525v59.975a.5.5 0 0 1 -.5.5z"/></g><path d="m24.044 39.381.017-7.356a.6.6 0 1 1 1.2 0l-.017 7.356a.6.6 0 1 1 -1.2 0z" fill="#fff"/><path d="m24.026 41.673v-.232a.6.6 0 0 1 1.2 0v.232a.6.6 0 1 1 -1.2 0z" fill="#fff"/></g></svg>